<svg width="97" height="97" viewBox="0 0 97 97" fill="none" xmlns="http://www.w3.org/2000/svg">
<circle cx="48.5" cy="48.5" r="43.5" fill="#AECA1D"/>
<circle cx="48.5" cy="48.5" r="45.85" stroke="black" stroke-opacity="0.9" stroke-width="4.7"/>
<path d="M36.7277 50.3849C36.34 50.7786 36.069 51.2719 35.9446 51.8102L28.2859 44.1515C26.182 42.0476 25 39.194 25 36.2187C25 33.2433 26.182 30.3898 28.2859 28.2859C30.3898 26.182 33.2433 25 36.2187 25C39.194 25 42.0476 26.182 44.1515 28.2859L51.7945 35.9759C51.2627 36.1139 50.7766 36.3894 50.3849 36.7747L36.7277 50.3849ZM68.7251 68.7251C66.6178 70.8225 63.7655 72 60.7923 72C57.8191 72 54.9669 70.8225 52.8595 68.7251L45.2165 61.0351C45.7483 60.8971 46.2344 60.6216 46.6261 60.2363L60.2833 46.5791C60.6709 46.1854 60.942 45.6921 61.0664 45.1538L68.7251 52.8125C70.8225 54.9199 72 57.7721 72 60.7453C72 63.7186 70.8225 66.5708 68.7251 68.6781V68.7251ZM45.5141 59.1713C45.2206 59.463 44.8237 59.6267 44.4099 59.6267C43.9961 59.6267 43.5992 59.463 43.3057 59.1713L37.8397 53.7053C37.548 53.4118 37.3842 53.0149 37.3842 52.6011C37.3842 52.1873 37.548 51.7904 37.8397 51.4969L51.4969 37.8397C51.7904 37.548 52.1873 37.3842 52.6011 37.3842C53.0149 37.3842 53.4118 37.548 53.7053 37.8397L59.1713 43.3057C59.463 43.5992 59.6267 43.9961 59.6267 44.4099C59.6267 44.8237 59.463 45.2206 59.1713 45.5141L45.5141 59.1713Z" fill="black" fill-opacity="0.79"/>
</svg>
